<?xml version="1.0" encoding="iso-8859-1"?>
<!-- Generator: Adobe Illustrator 19.0.0, SVG Export Plug-In . SVG Version: 6.00 Build 0)  -->
<svg version="1.1" id="Capa_1" xmlns="http://www.w3.org/2000/svg" xmlns:xlink="http://www.w3.org/1999/xlink" x="0px" y="0px"
	 viewBox="0 0 348.689 348.689" style="enable-background:new 0 0 348.689 348.689;" xml:space="preserve">
<g id="XMLID_790_">
	<rect id="XMLID_38_" x="155.345" y="0.345" style="fill:#FFEB99;" width="37" height="109"/>
	<rect id="XMLID_791_" x="174.345" style="fill:#FFE477;" width="18" height="109"/>
	<path id="XMLID_36_" style="fill:#00D7DF;" d="M284.345,277.345V161.394c0-64.258-49.684-116.35-110-116.35s-110,52.092-110,116.35
		v115.951H284.345z"/>
	<path id="XMLID_792_" style="fill:#00969B;" d="M174.345,45.044V277h110V161.394C284.345,97.135,234.661,45.044,174.345,45.044z"/>
	<path id="XMLID_34_" style="fill:#FFDA44;" d="M174.335,348.689c24.023,0,43.647-18.836,44.908-42.546
		c0.043-0.803,0.105-2.426-1.759-2.426h-86.298c-1.446,0-1.799,1.732-1.75,2.588C130.777,329.938,150.366,348.689,174.335,348.689z"
		/>
	<rect id="XMLID_33_" x="42.345" y="267.345" style="fill:#FFEB99;" width="264" height="40"/>
	<path id="XMLID_793_" style="fill:#FFCD00;" d="M217.484,303.717h-43.14v44.972c24.019-0.005,43.638-18.839,44.898-42.545
		C219.286,305.34,219.348,303.717,217.484,303.717z"/>
	<rect id="XMLID_794_" x="174.345" y="267" style="fill:#FFE477;" width="132" height="40"/>
</g>
<g>
</g>
<g>
</g>
<g>
</g>
<g>
</g>
<g>
</g>
<g>
</g>
<g>
</g>
<g>
</g>
<g>
</g>
<g>
</g>
<g>
</g>
<g>
</g>
<g>
</g>
<g>
</g>
<g>
</g>
</svg>
